<svg width="2700" height="481" viewBox="0 0 2700 481" fill="none" xmlns="http://www.w3.org/2000/svg">
<g clip-path="url(#clip0_397_1270)">
<path d="M959.785 393.415C873.585 393.415 818.341 355.346 815 277.303C815 275.397 816.908 273.492 818.815 273.492H872.151C874.059 273.492 875.966 275.397 876.44 277.303C880.255 320.13 901.2 347.249 961.206 347.249C1007.4 347.249 1036.93 332.5 1036.93 295.378C1036.93 213.05 821.67 275.871 821.67 145.484C821.67 84.1218 870.243 47 949.774 47C1029.3 47 1077.4 78.4039 1085.98 148.349C1086.45 150.255 1084.55 152.161 1082.65 152.161H1029.32C1027.41 152.161 1025.5 150.729 1025.03 148.349C1021.21 112.66 995.505 93.6261 947.879 93.6261C907.397 93.6261 879.295 107.902 879.295 139.779C879.295 217.348 1095.03 156.434 1095.03 287.294C1095.03 356.766 1041.21 393.415 959.773 393.415H959.785Z" fill="black"/>
<path d="M1234.58 391.509C1202.68 391.509 1177.9 379.612 1161.24 356.766L1162.18 463.833C1162.18 465.739 1160.28 467.645 1158.37 467.645H1107.41C1105.51 467.645 1103.6 465.739 1103.6 463.833L1105.03 283.968L1103.6 145.497C1103.6 143.591 1105.51 141.685 1107.41 141.685H1157.89C1159.8 141.685 1161.71 143.591 1161.71 145.497L1160.28 174.995C1177.42 151.202 1202.66 136.926 1235.53 136.926C1303.63 136.926 1339.35 192.123 1339.35 263.501C1339.35 334.879 1300.3 391.509 1234.57 391.509H1234.58ZM1218.86 350.588C1260.78 350.588 1281.25 319.184 1281.25 266.84C1281.25 211.17 1260.76 178.333 1220.28 178.333C1179.8 178.333 1159.31 206.885 1158.84 262.081C1158.37 318.711 1180.27 350.588 1218.85 350.588H1218.86Z" fill="black"/>
<path d="M1525.09 386.75C1523.18 386.75 1521.27 384.844 1521.27 382.938L1522.22 352.954C1505.55 377.22 1479.83 391.496 1446.98 391.496C1378.87 391.496 1343.16 336.299 1343.16 264.921C1343.16 193.543 1382.21 136.914 1447.94 136.914C1480.33 136.914 1505.56 149.283 1522.23 173.076L1520.8 145.471C1520.8 143.565 1522.71 141.659 1524.61 141.659H1575.09C1577 141.659 1578.91 143.565 1578.91 145.471L1577.48 263.476L1578.91 382.913C1578.91 384.818 1577 386.724 1575.09 386.724H1525.09V386.75ZM1462.23 351.061C1500.8 351.061 1523.19 322.51 1523.67 265.88C1524.14 209.251 1502.23 177.847 1463.66 177.374C1421.74 176.901 1401.27 208.778 1401.27 261.122C1401.27 318.224 1422.23 351.061 1462.24 351.061H1462.23Z" fill="black"/>
<path d="M1798.94 386.75C1796.55 386.75 1794.65 385.317 1794.17 382.938L1748.93 190.217L1708.92 382.938C1708.45 385.317 1706.07 386.75 1704.16 386.75H1644.63C1642.24 386.75 1640.34 385.317 1639.86 382.938L1581.76 145.497C1581.29 143.591 1582.71 141.685 1584.62 141.685H1635.1C1637.01 141.685 1639.39 143.118 1639.86 145.497L1677.02 338.691L1717.5 145.497C1717.97 143.118 1720.35 141.685 1722.26 141.685H1783.7C1785.61 141.685 1787.99 143.118 1788.46 145.497L1829.42 334.879L1866.57 145.497C1867.05 143.118 1869.43 141.685 1871.33 141.685H1916.58C1918.49 141.685 1919.91 143.591 1919.43 145.497L1863.72 382.938C1863.24 385.317 1861.34 386.75 1858.95 386.75H1798.95H1798.94Z" fill="black"/>
<path d="M1926.58 386.75C1924.67 386.75 1922.76 384.844 1922.76 382.938L1924.2 271.586L1923.72 145.484C1923.72 143.578 1925.63 141.672 1927.54 141.672H1975.64C1977.55 141.672 1979.45 143.578 1979.45 145.484L1978.02 177.361C1993.74 154.515 2021.83 135.967 2058.51 135.967C2109.46 135.967 2142.33 170.223 2142.33 232.084V282.523L2143.28 382.925C2143.28 384.831 2141.37 386.737 2139.46 386.737H2088.98C2087.07 386.737 2085.16 384.831 2085.16 382.925L2086.11 282.523V233.504C2086.11 198.762 2067.54 180.687 2041.34 180.687C2012.77 180.687 1985.62 204.953 1980.86 255.864V282.51L1981.81 382.913C1981.81 384.819 1979.9 386.724 1977.99 386.724H1926.55L1926.58 386.75Z" fill="black"/>
<path d="M2163.26 116.472C2161.35 116.472 2159.45 114.566 2159.45 112.66V63.655C2159.45 61.749 2161.35 59.843 2163.26 59.843H2213.74C2215.65 59.843 2217.56 61.749 2217.56 63.655V112.673C2217.56 114.579 2215.65 116.485 2213.74 116.485H2163.26V116.472ZM2163.26 386.75C2161.35 386.75 2159.45 384.844 2159.45 382.938L2160.39 262.555L2159.45 145.497C2159.45 143.591 2161.35 141.685 2163.26 141.685H2214.22C2216.12 141.685 2218.03 143.591 2218.03 145.497L2216.6 262.555L2218.03 382.938C2218.03 384.844 2216.12 386.75 2214.22 386.75H2163.26Z" fill="black"/>
<path d="M2239.95 386.75C2238.04 386.75 2236.13 384.844 2236.13 382.938L2237.57 271.586L2237.09 145.484C2237.09 143.578 2239 141.672 2240.91 141.672H2289.01C2290.92 141.672 2292.82 143.578 2292.82 145.484L2291.39 177.361C2307.11 154.515 2335.2 135.967 2371.88 135.967C2422.84 135.967 2455.7 170.223 2455.7 232.084V282.523L2456.65 382.925C2456.65 384.831 2454.74 386.737 2452.83 386.737H2402.35C2400.44 386.737 2398.54 384.831 2398.54 382.925L2399.48 282.523V233.504C2399.48 198.762 2380.91 180.687 2354.71 180.687C2326.14 180.687 2299 204.953 2294.23 255.864V282.51L2295.18 382.913C2295.18 384.819 2293.27 386.724 2291.36 386.724H2239.92L2239.95 386.75Z" fill="black"/>
<path d="M2584.28 480.974C2523.31 481.921 2477.12 456.708 2472.83 402.932C2472.83 401.026 2474.74 399.12 2476.64 399.12H2525.7C2527.61 399.12 2529.52 400.552 2529.99 402.932C2533.32 428.157 2553.81 441 2585.71 441C2621.43 441 2645.72 421.019 2645.72 374.854V346.776C2629.52 371.042 2604.76 385.317 2572.37 385.317C2501.41 385.317 2464.74 332.5 2464.74 263.028C2464.74 193.556 2503.79 137.886 2569.99 137.886C2602.38 137.886 2627.14 150.255 2643.34 173.101L2642.39 145.497C2642.39 143.591 2644.3 141.685 2646.2 141.685H2696.21C2698.12 141.685 2700.03 143.591 2700.03 145.497L2698.59 255.417L2699.07 375.813C2699.54 441.473 2659.53 480.974 2584.29 480.974H2584.28ZM2584.75 345.829C2622.38 345.829 2644.28 319.184 2644.76 264.934C2645.23 209.264 2623.8 178.333 2584.75 177.847C2543.79 176.901 2522.84 208.305 2522.84 260.649C2522.84 316.318 2544.27 346.302 2584.75 345.829Z" fill="black"/>
</g>
<path d="M84.7677 142C75.9311 142 68.7677 149.163 68.7677 158C68.7677 166.837 75.9311 174 84.7677 174V142ZM84.7677 174H269.561V142H84.7677V174Z" fill="black"/>
<path d="M357.72 70C348.883 70 341.72 77.1634 341.72 86C341.72 94.8366 348.883 102 357.72 102V70ZM357.72 102H715.439V70H357.72V102Z" fill="black"/>
<path d="M357.72 217C348.883 217 341.72 224.163 341.72 233C341.72 241.837 348.883 249 357.72 249V217ZM357.72 249H715.439V217H357.72V249Z" fill="black"/>
<path d="M357.72 364C348.883 364 341.72 371.163 341.72 380C341.72 388.837 348.883 396 357.72 396V364ZM357.72 396H715.439V364H357.72V396Z" fill="black"/>
<path d="M84.7677 290C75.9311 290 68.7677 297.163 68.7677 306C68.7677 314.837 75.9311 322 84.7677 322L84.7677 290ZM84.7677 322L269.561 322L269.561 290L84.7677 290L84.7677 322Z" fill="black"/>
<path d="M165.857 155.859C167.498 156.531 167.518 158.847 165.889 159.547L102.516 186.789C102.361 186.856 102.215 186.942 102.082 187.045L47.5321 229.265C46.13 230.35 44.1138 229.209 44.3218 227.449L52.4161 158.945C52.4359 158.778 52.4344 158.608 52.4117 158.441L43.1231 90.0896C42.8843 88.3327 44.8804 87.1569 46.3012 88.2175L101.58 129.479C101.715 129.58 101.862 129.663 102.018 129.727L165.857 155.859Z" fill="black"/>
<path d="M425.246 82.9586C426.887 83.6303 426.907 85.9468 425.278 86.647L361.906 113.889C361.751 113.955 361.605 114.041 361.471 114.145L306.921 156.365C305.519 157.45 303.503 156.309 303.711 154.548L311.805 86.045C311.825 85.8775 311.824 85.7081 311.801 85.541L302.512 17.1893C302.274 15.4324 304.27 14.2567 305.69 15.3172L360.969 56.5788C361.104 56.6797 361.251 56.7631 361.408 56.827L425.246 82.9586Z" fill="black"/>
<path d="M425.246 377.95C426.887 378.622 426.907 380.938 425.278 381.639L361.906 408.88C361.751 408.947 361.605 409.033 361.471 409.136L306.921 451.356C305.519 452.441 303.503 451.301 303.711 449.54L311.805 381.037C311.825 380.869 311.824 380.7 311.801 380.533L302.512 312.181C302.274 310.424 304.27 309.248 305.69 310.309L360.969 351.57C361.104 351.671 361.251 351.755 361.408 351.819L425.246 377.95Z" fill="black"/>
<path d="M167.552 303.355C169.193 304.026 169.213 306.343 167.584 307.043L104.212 334.285C104.057 334.351 103.911 334.437 103.777 334.541L49.2274 376.761C47.8253 377.846 45.8091 376.705 46.0171 374.944L54.1114 306.441C54.1312 306.274 54.1297 306.104 54.107 305.937L44.8184 237.585C44.5797 235.828 46.5757 234.653 47.9965 235.713L103.275 276.975C103.41 277.076 103.558 277.159 103.714 277.223L167.552 303.355Z" fill="black"/>
<path d="M426.941 230.454C428.582 231.126 428.603 233.443 426.974 234.143L363.601 261.385C363.446 261.451 363.3 261.537 363.167 261.64L308.617 303.86C307.214 304.946 305.198 303.805 305.406 302.044L313.501 233.541C313.52 233.373 313.519 233.204 313.496 233.037L304.208 164.685C303.969 162.928 305.965 161.753 307.386 162.813L362.664 204.075C362.799 204.176 362.947 204.259 363.103 204.323L426.941 230.454Z" fill="black"/>
<defs>
<clipPath id="clip0_397_1270">
<rect width="1885" height="434" fill="white" transform="translate(815 47)"/>
</clipPath>
</defs>
</svg>
