<svg width="800" height="557" viewBox="0 0 800 557" fill="none" xmlns="http://www.w3.org/2000/svg">
<path d="M108.768 188C99.9311 188 92.7677 195.163 92.7677 204C92.7677 212.837 99.9311 220 108.768 220V188ZM108.768 220H293.561V188H108.768V220Z" fill="black"/>
<path d="M381.72 116C372.883 116 365.72 123.163 365.72 132C365.72 140.837 372.883 148 381.72 148V116ZM381.72 148H739.439V116H381.72V148Z" fill="black"/>
<path d="M381.72 263C372.883 263 365.72 270.163 365.72 279C365.72 287.837 372.883 295 381.72 295V263ZM381.72 295H739.439V263H381.72V295Z" fill="black"/>
<path d="M381.72 410C372.883 410 365.72 417.163 365.72 426C365.72 434.837 372.883 442 381.72 442V410ZM381.72 442H739.439V410H381.72V442Z" fill="black"/>
<path d="M108.768 336C99.9311 336 92.7677 343.163 92.7677 352C92.7677 360.837 99.9311 368 108.768 368L108.768 336ZM108.768 368L293.561 368L293.561 336L108.768 336L108.768 368Z" fill="black"/>
<path d="M189.857 201.859C191.498 202.531 191.518 204.847 189.889 205.547L126.516 232.789C126.361 232.856 126.215 232.942 126.082 233.045L71.5321 275.265C70.13 276.35 68.1138 275.209 68.3218 273.449L76.4161 204.945C76.4359 204.778 76.4344 204.608 76.4117 204.441L67.1231 136.09C66.8843 134.333 68.8804 133.157 70.3012 134.217L125.58 175.479C125.715 175.58 125.862 175.663 126.018 175.727L189.857 201.859Z" fill="black"/>
<path d="M449.246 128.959C450.887 129.63 450.907 131.947 449.278 132.647L385.906 159.889C385.751 159.955 385.605 160.041 385.471 160.145L330.921 202.365C329.519 203.45 327.503 202.309 327.711 200.548L335.805 132.045C335.825 131.877 335.824 131.708 335.801 131.541L326.512 63.1893C326.274 61.4324 328.27 60.2567 329.69 61.3173L384.969 102.579C385.104 102.68 385.251 102.763 385.408 102.827L449.246 128.959Z" fill="black"/>
<path d="M449.246 423.95C450.887 424.622 450.907 426.938 449.278 427.639L385.906 454.88C385.751 454.947 385.605 455.033 385.471 455.136L330.921 497.356C329.519 498.441 327.503 497.301 327.711 495.54L335.805 427.037C335.825 426.869 335.824 426.7 335.801 426.533L326.512 358.181C326.274 356.424 328.27 355.248 329.69 356.309L384.969 397.57C385.104 397.671 385.251 397.755 385.408 397.819L449.246 423.95Z" fill="black"/>
<path d="M191.552 349.355C193.193 350.026 193.213 352.343 191.584 353.043L128.212 380.285C128.057 380.351 127.911 380.437 127.777 380.541L73.2274 422.761C71.8253 423.846 69.8091 422.705 70.0171 420.944L78.1114 352.441C78.1312 352.274 78.1297 352.104 78.107 351.937L68.8184 283.585C68.5797 281.828 70.5757 280.653 71.9965 281.713L127.275 322.975C127.41 323.076 127.558 323.159 127.714 323.223L191.552 349.355Z" fill="black"/>
<path d="M450.941 276.454C452.582 277.126 452.603 279.443 450.974 280.143L387.601 307.385C387.446 307.451 387.3 307.537 387.167 307.64L332.617 349.86C331.214 350.946 329.198 349.805 329.406 348.044L337.501 279.541C337.52 279.373 337.519 279.204 337.496 279.037L328.208 210.685C327.969 208.928 329.965 207.752 331.386 208.813L386.664 250.075C386.799 250.176 386.947 250.259 387.103 250.323L450.941 276.454Z" fill="black"/>
</svg>
